<svg width="20" height="20" viewBox="0 0 20 20" fill="none" xmlns="http://www.w3.org/2000/svg">
<path fill-rule="evenodd" clip-rule="evenodd" d="M10 11.4043C11.0609 11.4043 12.0783 10.9863 12.8284 10.2424C13.5786 9.49851 14 8.48954 14 7.43749C14 6.38543 13.5786 5.37646 12.8284 4.63255C12.0783 3.88863 11.0609 3.4707 10 3.4707C8.93913 3.4707 7.92172 3.88863 7.17157 4.63255C6.42143 5.37646 6 6.38543 6 7.43749C6 8.48954 6.42143 9.49851 7.17157 10.2424C7.92172 10.9863 8.93913 11.4043 10 11.4043ZM10 10.4126C10.394 10.4126 10.7841 10.3356 11.1481 10.1861C11.512 10.0366 11.8427 9.81745 12.1213 9.54119C12.3999 9.26493 12.6209 8.93696 12.7716 8.576C12.9224 8.21505 13 7.82818 13 7.43749C13 7.04679 12.9224 6.65992 12.7716 6.29897C12.6209 5.93802 12.3999 5.61004 12.1213 5.33378C11.8427 5.05752 11.512 4.83838 11.1481 4.68886C10.7841 4.53935 10.394 4.4624 10 4.4624C9.20435 4.4624 8.44129 4.77584 7.87868 5.33378C7.31607 5.89172 7 6.64844 7 7.43749C7 8.22653 7.31607 8.98325 7.87868 9.54119C8.44129 10.0991 9.20435 10.4126 10 10.4126Z" fill="white"/>
<path fill-rule="evenodd" clip-rule="evenodd" d="M20 9.91696C20 15.3941 15.523 19.8339 10 19.8339C4.477 19.8339 0 15.3941 0 9.91696C0 4.43982 4.477 0 10 0C15.523 0 20 4.43982 20 9.91696ZM14.815 17.4588C13.3755 18.365 11.7051 18.8449 10 18.8422C8.25424 18.8449 6.54573 18.3417 5.0845 17.3943C4.9645 17.2456 4.8425 17.0919 4.7195 16.9332C4.57659 16.7473 4.49944 16.5199 4.5 16.2861C4.5 15.7521 4.887 15.3043 5.4045 15.2295C8.827 14.7336 11.1835 14.7763 14.6105 15.2468C14.8587 15.2825 15.0855 15.406 15.249 15.5946C15.4125 15.7832 15.5016 16.024 15.5 16.2727C15.5 16.5107 15.4175 16.7418 15.2685 16.9223C15.115 17.1077 14.9635 17.2867 14.815 17.4588ZM16.4925 16.0982C16.4125 15.17 15.702 14.3955 14.7475 14.2646C11.2395 13.7831 8.7875 13.737 5.26 14.2482C4.3 14.387 3.5925 15.1685 3.5085 16.0992C1.89616 14.4386 0.996822 12.2222 1 9.91696C1 4.98773 5.0295 0.991696 10 0.991696C14.9705 0.991696 19 4.98773 19 9.91696C19.0032 12.2217 18.1042 14.4377 16.4925 16.0982Z" fill="white"/>
</svg>
